<svg width="1000" height="1000" viewBox="0 0 1000 1000" xmlns="http://www.w3.org/2000/svg"><defs/><path fill="#010101" d="M 0 0 L 1000 0 L 1000 1000 L 0 1000 Z"/><path fill="#d10809" transform="matrix(0.39473393108478666 0 0 0.39473393108478666 41.399740368437385 -17.6184812022595)" d="M 615.22344457246 1283.90098013387 C 611.62344457246 1277.40098013387 611.22344457246 1269.70098013387 613.82344457246 1262.70098013387 C 614.32344457246 1261.30098013387 614.82344457246 1259.80098013387 615.22344457246 1258.30098013387 L 628.52344457246 1206.30098013387 C 637.02344457246 1173.20098013387 629.92344457246 1138.80098013387 609.32344457246 1111.60098013387 C 588.02344457246 1083.70098013387 554.42344457246 1067.90098013387 519.32344457246 1067.90098013387 L 400.62344457246 1067.90098013387 C 365.52344457246 1067.90098013387 331.92344457246 1083.70098013387 310.62344457246 1111.60098013387 C 289.92344457246 1138.70098013387 282.92344457246 1173.20098013387 291.42344457246 1206.30098013387 L 304.72344457246 1258.30098013387 C 304.72344457246 1258.30098013387 304.72344457246 1258.40098013387 304.72344457246 1258.40098013387 C 306.42344457246 1265.20098013387 305.52344457246 1272.30098013387 301.82344457246 1278.30098013387 C 284.82344457246 1306.10098013387 275.02344457246 1338.90098013387 275.12344457246 1373.90098013387 C 275.52344457246 1472.40098013387 355.72344457246 1553.40098013387 454.22344457246 1554.70098013387 C 555.72344457246 1556.10098013387 638.42344457246 1474.20098013387 638.42344457246 1373.00098013387 C 638.62344457246 1340.70098013387 630.02344457246 1310.30098013387 615.22344457246 1283.90098013387 Z M 354.52344457246 1145.00098013387 C 365.32344457246 1130.90098013387 382.32344457246 1123.00098013387 400.12344457246 1123.00098013387 L 519.72344457246 1123.00098013387 C 537.52344457246 1123.00098013387 554.52344457246 1130.90098013387 565.32344457246 1145.00098013387 C 575.72344457246 1158.70098013387 579.32344457246 1176.00098013387 575.02344457246 1192.70098013387 L 572.22344457246 1203.80098013387 C 569.32344457246 1215.20098013387 556.42344457246 1220.60098013387 546.22344457246 1214.80098013387 C 519.82344457246 1199.90098013387 489.42344457246 1191.40098013387 456.92344457246 1191.40098013387 C 426.32344457246 1191.40098013387 397.52344457246 1199.00098013387 372.22344457246 1212.30098013387 C 362.12344457246 1217.60098013387 349.72344457246 1211.90098013387 346.92344457246 1200.90098013387 L 344.82344457246 1192.70098013387 C 340.52344457246 1176.10098013387 344.12344457246 1158.70098013387 354.52344457246 1145.00098013387 Z M 456.92344457246 1502.50098013387 C 385.52344457246 1502.50098013387 327.52344457246 1444.60098013387 327.52344457246 1373.10098013387 C 327.52344457246 1301.70098013387 385.42344457246 1243.70098013387 456.92344457246 1243.70098013387 C 528.32344457246 1243.70098013387 586.32344457246 1301.60098013387 586.32344457246 1373.10098013387 C 586.32344457246 1444.60098013387 528.32344457246 1502.50098013387 456.92344457246 1502.50098013387 Z"/><path fill="#d10809" transform="matrix(0.39473393108478666 0 0 0.39473393108478666 41.399740368437385 -17.6184812022595)" d="M 498.92344457246 1323.30098013387 L 461.52344457246 1363.20098013387 C 460.02344457246 1362.80098013387 458.52344457246 1362.50098013387 456.82344457246 1362.50098013387 C 454.92344457246 1362.50098013387 453.02344457246 1362.80098013387 451.22344457246 1363.40098013387 L 429.72344457246 1342.80098013387 C 426.52344457246 1339.70098013387 421.52344457246 1339.80098013387 418.42344457246 1343.00098013387 C 415.32344457246 1346.20098013387 415.42344457246 1351.20098013387 418.62344457246 1354.30098013387 L 440.22344457246 1375.00098013387 C 439.72344457246 1376.60098013387 439.52344457246 1378.20098013387 439.52344457246 1379.90098013387 C 439.52344457246 1389.50098013387 447.32344457246 1397.20098013387 456.82344457246 1397.20098013387 C 466.42344457246 1397.20098013387 474.12344457246 1389.40098013387 474.12344457246 1379.90098013387 C 474.12344457246 1377.90098013387 473.72344457246 1375.90098013387 473.12344457246 1374.10098013387 L 510.52344457246 1334.20098013387 C 513.52344457246 1331.00098013387 513.32344457246 1325.90098013387 510.12344457246 1322.90098013387 C 507.02344457246 1319.90098013387 501.92344457246 1320.10098013387 498.92344457246 1323.30098013387 Z"/><path fill="#d10809" transform="matrix(0.39473393108478666 0 0 0.39473393108478666 41.399740368437385 -17.6184812022595)" d="M 456.92344457246 1285.10098013387 C 458.82344457246 1285.10098013387 460.32344457246 1283.60098013387 460.32344457246 1281.70098013387 L 460.32344457246 1259.10098013387 C 460.32344457246 1257.20098013387 458.82344457246 1255.70098013387 456.92344457246 1255.70098013387 C 455.02344457246 1255.70098013387 453.52344457246 1257.20098013387 453.52344457246 1259.10098013387 L 453.52344457246 1281.70098013387 C 453.52344457246 1283.50098013387 455.02344457246 1285.10098013387 456.92344457246 1285.10098013387 Z"/><path fill="#d10809" transform="matrix(0.39473393108478666 0 0 0.39473393108478666 41.399740368437385 -17.6184812022595)" d="M 535.12344457246 1290.00098013387 L 519.12344457246 1306.00098013387 C 517.82344457246 1307.30098013387 517.82344457246 1309.50098013387 519.12344457246 1310.80098013387 C 519.82344457246 1311.50098013387 520.62344457246 1311.80098013387 521.52344457246 1311.80098013387 C 522.42344457246 1311.80098013387 523.32344457246 1311.50098013387 523.92344457246 1310.80098013387 L 539.92344457246 1294.80098013387 C 541.22344457246 1293.50098013387 541.22344457246 1291.30098013387 539.92344457246 1290.00098013387 C 538.62344457246 1288.70098013387 536.52344457246 1288.70098013387 535.12344457246 1290.00098013387 Z"/><path fill="#d10809" transform="matrix(0.39473393108478666 0 0 0.39473393108478666 41.399740368437385 -17.6184812022595)" d="M 544.92344457246 1373.10098013387 C 544.92344457246 1375.00098013387 546.42344457246 1376.50098013387 548.32344457246 1376.50098013387 L 570.92344457246 1376.50098013387 C 572.82344457246 1376.50098013387 574.32344457246 1375.00098013387 574.32344457246 1373.10098013387 C 574.32344457246 1371.20098013387 572.82344457246 1369.70098013387 570.92344457246 1369.70098013387 L 548.32344457246 1369.70098013387 C 546.52344457246 1369.70098013387 544.92344457246 1371.20098013387 544.92344457246 1373.10098013387 Z"/><path fill="#d10809" transform="matrix(0.39473393108478666 0 0 0.39473393108478666 41.399740368437385 -17.6184812022595)" d="M 524.02344457246 1435.40098013387 C 522.72344457246 1434.10098013387 520.52344457246 1434.10098013387 519.22344457246 1435.40098013387 C 517.92344457246 1436.70098013387 517.92344457246 1438.90098013387 519.22344457246 1440.20098013387 L 535.22344457246 1456.20098013387 C 535.92344457246 1456.90098013387 536.72344457246 1457.20098013387 537.62344457246 1457.20098013387 C 538.52344457246 1457.20098013387 539.42344457246 1456.90098013387 540.02344457246 1456.20098013387 C 541.32344457246 1454.90098013387 541.32344457246 1452.70098013387 540.02344457246 1451.40098013387 L 524.02344457246 1435.40098013387 Z"/><path fill="#d10809" transform="matrix(0.39473393108478666 0 0 0.39473393108478666 41.399740368437385 -17.6184812022595)" d="M 456.92344457246 1461.10098013387 C 455.02344457246 1461.10098013387 453.52344457246 1462.60098013387 453.52344457246 1464.50098013387 L 453.52344457246 1487.10098013387 C 453.52344457246 1489.00098013387 455.02344457246 1490.50098013387 456.92344457246 1490.50098013387 C 458.82344457246 1490.50098013387 460.32344457246 1489.00098013387 460.32344457246 1487.10098013387 L 460.32344457246 1464.50098013387 C 460.32344457246 1462.70098013387 458.82344457246 1461.10098013387 456.92344457246 1461.10098013387 Z"/><path fill="#d10809" transform="matrix(0.39473393108478666 0 0 0.39473393108478666 41.399740368437385 -17.6184812022595)" d="M 389.82344457246 1435.40098013387 L 373.82344457246 1451.40098013387 C 372.52344457246 1452.70098013387 372.52344457246 1454.90098013387 373.82344457246 1456.20098013387 C 374.52344457246 1456.90098013387 375.32344457246 1457.20098013387 376.22344457246 1457.20098013387 C 377.12344457246 1457.20098013387 378.02344457246 1456.90098013387 378.62344457246 1456.20098013387 L 394.62344457246 1440.20098013387 C 395.92344457246 1438.90098013387 395.92344457246 1436.70098013387 394.62344457246 1435.40098013387 C 393.32344457246 1434.00098013387 391.12344457246 1434.00098013387 389.82344457246 1435.40098013387 Z"/><path fill="#d10809" transform="matrix(0.39473393108478666 0 0 0.39473393108478666 41.399740368437385 -17.6184812022595)" d="M 365.42344457246 1369.70098013387 L 342.82344457246 1369.70098013387 C 340.92344457246 1369.70098013387 339.42344457246 1371.20098013387 339.42344457246 1373.10098013387 C 339.42344457246 1375.00098013387 340.92344457246 1376.50098013387 342.82344457246 1376.50098013387 L 365.42344457246 1376.50098013387 C 367.32344457246 1376.50098013387 368.82344457246 1375.00098013387 368.82344457246 1373.10098013387 C 368.82344457246 1371.20098013387 367.32344457246 1369.70098013387 365.42344457246 1369.70098013387 Z"/><path fill="#d10809" transform="matrix(0.39473393108478666 0 0 0.39473393108478666 41.399740368437385 -17.6184812022595)" d="M 378.62344457246 1290.00098013387 C 377.32344457246 1288.70098013387 375.12344457246 1288.70098013387 373.82344457246 1290.00098013387 C 372.52344457246 1291.30098013387 372.52344457246 1293.50098013387 373.82344457246 1294.80098013387 L 389.82344457246 1310.80098013387 C 390.52344457246 1311.50098013387 391.32344457246 1311.80098013387 392.22344457246 1311.80098013387 C 393.12344457246 1311.80098013387 394.02344457246 1311.50098013387 394.62344457246 1310.80098013387 C 395.92344457246 1309.50098013387 395.92344457246 1307.30098013387 394.62344457246 1306.00098013387 L 378.62344457246 1290.00098013387 Z"/><path id="text" fill="#ececec" transform="matrix(0.6269356562729352 0 0 0.6269356562729352 229.45988268327235 24.200428384406514)" d="M 165.73623150902 698.42999888822 L 166.48623150902 694.53937388822 L 196.86123150902 694.53937388822 L 196.15810650902 698.75812388822 L 190.48623150902 702.08624888822 L 190.43935650902 715.86749888822 C 188.93935650902 718.08624888822 186.93935650902 720.07062388822 184.43935650902 721.82062388822 C 181.93935650902 723.57062388822 179.11123150902 724.93781138822 175.95498150902 725.92218638822 C 172.79873150902 726.90656138822 169.54873150902 727.39874888822 166.20498150902 727.39874888822 C 161.01748150902 727.39874888822 156.63466900902 726.81281138822 153.05654400902 725.64093638822 C 149.47841900902 724.46906138822 146.04873150902 722.38312388822 142.76748150902 719.38312388822 C 139.95498150902 716.72687388822 137.79091900902 713.30499888822 136.27529400902 709.11749888822 C 134.75966900902 704.92999888822 134.00185650902 700.38312388822 134.00185650902 695.47687388822 C 134.00185650902 689.66437388822 135.01748150902 684.14874888822 137.04873150902 678.92999888822 C 139.07998150902 673.71124888822 142.31435650902 669.30499888822 146.75185650902 665.71124888822 C 149.31435650902 663.61749888822 152.36904400902 662.01593638822 155.91591900902 660.90656138822 C 159.46279400902 659.79718638822 163.18935650902 659.24249888822 167.09560650902 659.24249888822 C 169.22060650902 659.24249888822 171.41591900902 659.35968638822 173.68154400902 659.59406138822 C 175.94716900902 659.82843638822 178.03310650902 660.16437388822 179.93935650902 660.60187388822 L 186.64248150902 659.94562388822 L 188.56435650902 677.28937388822 L 183.26748150902 678.27374888822 L 179.32998150902 669.36749888822 C 177.76748150902 668.27374888822 175.65810650902 667.39874888822 173.00185650902 666.74249888822 C 170.34560650902 666.08624888822 167.79873150902 665.75812388822 165.36123150902 665.75812388822 C 162.82998150902 665.75812388822 160.44716900902 666.01593638822 158.21279400902 666.53156138822 C 155.97841900902 667.04718638822 154.36123150902 667.75812388822 153.36123150902 668.66437388822 C 151.29873150902 670.57062388822 149.68935650902 673.54718638822 148.53310650902 677.59406138822 C 147.37685650902 681.64093638822 146.79873150902 686.77374888822 146.79873150902 692.99249888822 C 146.79873150902 697.36749888822 147.39248150902 701.46906138822 148.57998150902 705.29718638822 C 149.76748150902 709.12531138822 151.53310650902 712.16437388822 153.87685650902 714.41437388822 C 156.03310650902 716.57062388822 158.30654400902 718.05499888822 160.69716900902 718.86749888822 C 163.08779400902 719.67999888822 165.64248150902 720.08624888822 168.36123150902 720.08624888822 C 170.07998150902 720.08624888822 171.93935650902 719.88312388822 173.93935650902 719.47687388822 C 175.93935650902 719.07062388822 177.47060650902 718.49249888822 178.53310650902 717.74249888822 L 178.53310650902 701.71124888822 L 165.73623150902 698.42999888822 Z M 249.82998150902 681.22687388822 L 249.22060650902 684.55499888822 L 243.87685650902 687.17999888822 L 232.34560650902 718.16437388822 C 229.90810650902 724.63312388822 227.78310650902 729.86749888822 225.97060650902 733.86749888822 C 224.15810650902 737.86749888822 222.31435650902 741.08624888822 220.43935650902 743.52374888822 C 218.56435650902 745.96124888822 216.53310650902 747.60187388822 214.34560650902 748.44562388822 C 213.06435650902 748.94562388822 211.59560650902 749.19562388822 209.93935650902 749.19562388822 C 208.22060650902 749.19562388822 206.46279400902 748.92999888822 204.66591900902 748.39874888822 C 202.86904400902 747.86749888822 201.36904400902 747.11749888822 200.16591900902 746.14874888822 C 198.96279400902 745.17999888822 198.36123150902 744.05499888822 198.36123150902 742.77374888822 C 198.36123150902 741.92999888822 198.78310650902 740.91437388822 199.62685650902 739.72687388822 C 200.47060650902 738.53937388822 201.46279400902 737.50812388822 202.60341900902 736.63312388822 C 203.74404400902 735.75812388822 204.72060650902 735.32062388822 205.53310650902 735.32062388822 C 206.12685650902 735.32062388822 206.85341900902 735.53156138822 207.71279400902 735.95343638822 C 208.57216900902 736.37531138822 209.26748150902 736.83624888822 209.79873150902 737.33624888822 L 211.43935650902 745.39874888822 C 212.12685650902 745.02374888822 213.14248150902 743.87531138822 214.48623150902 741.95343638822 C 215.82998150902 740.03156138822 217.25966900902 737.69562388822 218.77529400902 734.94562388822 C 220.29091900902 732.19562388822 221.65810650902 729.44562388822 222.87685650902 726.69562388822 L 219.73623150902 727.07062388822 L 203.14248150902 687.27374888822 L 196.48623150902 684.55499888822 L 197.09560650902 681.22687388822 L 221.51748150902 681.22687388822 L 220.81435650902 684.60187388822 L 215.37685650902 687.03937388822 L 226.57998150902 716.10187388822 L 236.18935650902 687.13312388822 L 230.23623150902 684.46124888822 L 230.79873150902 681.22687388822 L 249.82998150902 681.22687388822 Z M 252.22060650902 685.63312388822 L 252.59560650902 683.42999888822 L 267.31435650902 680.75812388822 L 269.51748150902 688.11749888822 C 272.42373150902 685.71124888822 275.40810650902 683.77374888822 278.47060650902 682.30499888822 C 281.53310650902 680.83624888822 284.39248150902 680.10187388822 287.04873150902 680.10187388822 C 289.29873150902 680.10187388822 291.42373150902 680.71906138822 293.42373150902 681.95343638822 C 295.42373150902 683.18781138822 296.95498150902 685.21124888822 298.01748150902 688.02374888822 C 300.82998150902 685.67999888822 303.83779400902 683.77374888822 307.04091900902 682.30499888822 C 310.24404400902 680.83624888822 313.00185650902 680.10187388822 315.31435650902 680.10187388822 C 318.31435650902 680.10187388822 320.76748150902 680.75812388822 322.67373150902 682.07062388822 C 324.57998150902 683.38312388822 326.00185650902 685.55499888822 326.93935650902 688.58624888822 C 327.87685650902 691.61749888822 328.34560650902 695.71124888822 328.34560650902 700.86749888822 L 328.34560650902 719.61749888822 L 335.89248150902 722.24249888822 L 335.14248150902 725.75812388822 L 311.79873150902 725.75812388822 L 312.54873150902 722.00812388822 L 317.00185650902 719.28937388822 L 317.00185650902 702.78937388822 C 317.00185650902 698.60187388822 316.69716900902 695.39093638822 316.08779400902 693.15656138822 C 315.47841900902 690.92218638822 314.67373150902 689.42999888822 313.67373150902 688.67999888822 C 313.39248150902 688.36749888822 313.12685650902 688.15656138822 312.87685650902 688.04718638822 C 312.62685650902 687.93781138822 312.29873150902 687.88312388822 311.89248150902 687.88312388822 C 310.82998150902 687.88312388822 308.87685650902 688.12531138822 306.03310650902 688.60968638822 C 303.18935650902 689.09406138822 300.76748150902 689.69562388822 298.76748150902 690.41437388822 C 299.07998150902 691.57062388822 299.27529400902 693.16437388822 299.35341900902 695.19562388822 C 299.43154400902 697.22687388822 299.47060650902 699.96124888822 299.47060650902 703.39874888822 L 299.47060650902 719.61749888822 L 306.50185650902 722.28937388822 L 305.70498150902 725.75812388822 L 282.97060650902 725.75812388822 L 283.67373150902 722.05499888822 L 288.12685650902 719.28937388822 L 288.12685650902 702.32062388822 C 288.12685650902 694.91437388822 286.90810650902 690.24249888822 284.47060650902 688.30499888822 C 284.15810650902 688.02374888822 283.75185650902 687.88312388822 283.25185650902 687.88312388822 C 282.00185650902 687.88312388822 280.06435650902 688.12531138822 277.43935650902 688.60968638822 C 274.81435650902 689.09406138822 272.40810650902 689.67999888822 270.22060650902 690.36749888822 C 270.40810650902 691.30499888822 270.50185650902 692.36749888822 270.50185650902 693.55499888822 L 270.45498150902 719.61749888822 L 277.57998150902 722.33624888822 L 276.87685650902 725.75812388822 L 251.93935650902 725.75812388822 L 252.64248150902 721.96124888822 L 259.11123150902 719.14874888822 L 259.11123150902 689.57062388822 L 252.22060650902 685.63312388822 Z M 398.75185650902 698.42999888822 L 399.50185650902 694.53937388822 L 429.87685650902 694.53937388822 L 429.17373150902 698.75812388822 L 423.50185650902 702.08624888822 L 423.45498150902 715.86749888822 C 421.95498150902 718.08624888822 419.95498150902 720.07062388822 417.45498150902 721.82062388822 C 414.95498150902 723.57062388822 412.12685650902 724.93781138822 408.97060650902 725.92218638822 C 405.81435650902 726.90656138822 402.56435650902 727.39874888822 399.22060650902 727.39874888822 C 394.03310650902 727.39874888822 389.65029400902 726.81281138822 386.07216900902 725.64093638822 C 382.49404400902 724.46906138822 379.06435650902 722.38312388822 375.78310650902 719.38312388822 C 372.97060650902 716.72687388822 370.80654400902 713.30499888822 369.29091900902 709.11749888822 C 367.77529400902 704.92999888822 367.01748150902 700.38312388822 367.01748150902 695.47687388822 C 367.01748150902 689.66437388822 368.03310650902 684.14874888822 370.06435650902 678.92999888822 C 372.09560650902 673.71124888822 375.32998150902 669.30499888822 379.76748150902 665.71124888822 C 382.32998150902 663.61749888822 385.38466900902 662.01593638822 388.93154400902 660.90656138822 C 392.47841900902 659.79718638822 396.20498150902 659.24249888822 400.11123150902 659.24249888822 C 402.23623150902 659.24249888822 404.43154400902 659.35968638822 406.69716900902 659.59406138822 C 408.96279400902 659.82843638822 411.04873150902 660.16437388822 412.95498150902 660.60187388822 L 419.65810650902 659.94562388822 L 421.57998150902 677.28937388822 L 416.28310650902 678.27374888822 L 412.34560650902 669.36749888822 C 410.78310650902 668.27374888822 408.67373150902 667.39874888822 406.01748150902 666.74249888822 C 403.36123150902 666.08624888822 400.81435650902 665.75812388822 398.37685650902 665.75812388822 C 395.84560650902 665.75812388822 393.46279400902 666.01593638822 391.22841900902 666.53156138822 C 388.99404400902 667.04718638822 387.37685650902 667.75812388822 386.37685650902 668.66437388822 C 384.31435650902 670.57062388822 382.70498150902 673.54718638822 381.54873150902 677.59406138822 C 380.39248150902 681.64093638822 379.81435650902 686.77374888822 379.81435650902 692.99249888822 C 379.81435650902 697.36749888822 380.40810650902 701.46906138822 381.59560650902 705.29718638822 C 382.78310650902 709.12531138822 384.54873150902 712.16437388822 386.89248150902 714.41437388822 C 389.04873150902 716.57062388822 391.32216900902 718.05499888822 393.71279400902 718.86749888822 C 396.10341900902 719.67999888822 398.65810650902 720.08624888822 401.37685650902 720.08624888822 C 403.09560650902 720.08624888822 404.95498150902 719.88312388822 406.95498150902 719.47687388822 C 408.95498150902 719.07062388822 410.48623150902 718.49249888822 411.54873150902 717.74249888822 L 411.54873150902 701.71124888822 L 398.75185650902 698.42999888822 Z M 435.64248150902 707.19562388822 C 436.73623150902 705.38312388822 438.54873150902 703.94562388822 441.07998150902 702.88312388822 C 442.73623150902 702.16437388822 444.75185650902 701.63312388822 447.12685650902 701.28937388822 C 449.50185650902 700.94562388822 451.82998150902 700.77374888822 454.11123150902 700.77374888822 C 456.23623150902 700.77374888822 458.26748150902 700.89874888822 460.20498150902 701.14874888822 L 460.20498150902 698.61749888822 C 460.20498150902 695.77374888822 459.93154400902 693.18781138822 459.38466900902 690.85968638822 C 458.83779400902 688.53156138822 457.75185650902 686.86749888822 456.12685650902 685.86749888822 C 455.53310650902 685.49249888822 454.75966900902 685.21124888822 453.80654400902 685.02374888822 C 452.85341900902 684.83624888822 451.86123150902 684.74249888822 450.82998150902 684.74249888822 C 449.92373150902 684.74249888822 449.00185650902 684.85187388822 448.06435650902 685.07062388822 L 446.61123150902 693.32062388822 C 446.01748150902 693.85187388822 445.34560650902 694.29718638822 444.59560650902 694.65656138822 C 443.84560650902 695.01593638822 443.20498150902 695.19562388822 442.67373150902 695.19562388822 C 441.89248150902 695.19562388822 440.93154400902 694.82843638822 439.79091900902 694.09406138822 C 438.65029400902 693.35968638822 437.66591900902 692.46124888822 436.83779400902 691.39874888822 C 436.00966900902 690.33624888822 435.59560650902 689.33624888822 435.59560650902 688.39874888822 C 435.59560650902 687.58624888822 436.12685650902 686.77374888822 437.18935650902 685.96124888822 C 438.25185650902 685.14874888822 439.50185650902 684.41437388822 440.93935650902 683.75812388822 C 443.50185650902 682.63312388822 446.55654400902 681.73468638822 450.10341900902 681.06281138822 C 453.65029400902 680.39093638822 456.36123150902 680.05499888822 458.23623150902 680.05499888822 C 462.92373150902 680.05499888822 466.31435650902 681.31281138822 468.40810650902 683.82843638822 C 470.50185650902 686.34406138822 471.54873150902 689.78937388822 471.54873150902 694.16437388822 L 471.54873150902 716.57062388822 C 473.36123150902 718.88312388822 476.07998150902 720.49249888822 479.70498150902 721.39874888822 L 479.09560650902 724.11749888822 C 475.28310650902 725.89874888822 471.25185650902 726.83624888822 467.00185650902 726.92999888822 C 466.25185650902 725.39874888822 465.45498150902 724.03937388822 464.61123150902 722.85187388822 C 463.76748150902 721.66437388822 462.72060650902 720.57062388822 461.47060650902 719.57062388822 C 460.59560650902 720.78937388822 459.39248150902 721.96124888822 457.86123150902 723.08624888822 C 456.32998150902 724.21124888822 454.61123150902 725.13312388822 452.70498150902 725.85187388822 C 450.79873150902 726.57062388822 448.84560650902 726.92999888822 446.84560650902 726.92999888822 C 443.84560650902 726.92999888822 441.38466900902 726.30499888822 439.46279400902 725.05499888822 C 437.54091900902 723.80499888822 436.15029400902 722.22687388822 435.29091900902 720.32062388822 C 434.43154400902 718.41437388822 434.00185650902 716.46124888822 434.00185650902 714.46124888822 C 434.00185650902 711.42999888822 434.54873150902 709.00812388822 435.64248150902 707.19562388822 Z M 450.50185650902 720.27374888822 C 451.81435650902 720.27374888822 453.45498150902 720.03937388822 455.42373150902 719.57062388822 C 457.39248150902 719.10187388822 458.98623150902 718.58624888822 460.20498150902 718.02374888822 L 460.20498150902 704.19562388822 C 457.48623150902 704.50812388822 455.11123150902 704.92999888822 453.07998150902 705.46124888822 C 451.04873150902 705.99249888822 449.45498150902 706.54718638822 448.29873150902 707.12531138822 C 447.14248150902 707.70343638822 446.39248150902 708.19562388822 446.04873150902 708.60187388822 C 445.54873150902 709.25812388822 445.29873150902 710.27374888822 445.29873150902 711.64874888822 C 445.29873150902 713.14874888822 445.67373150902 714.74249888822 446.42373150902 716.42999888822 C 447.17373150902 718.11749888822 448.04873150902 719.24249888822 449.04873150902 719.80499888822 C 449.39248150902 720.11749888822 449.87685650902 720.27374888822 450.50185650902 720.27374888822 Z M 482.42373150902 685.63312388822 L 482.79873150902 683.42999888822 L 497.51748150902 680.52374888822 L 499.72060650902 688.11749888822 C 502.78310650902 685.67999888822 505.89248150902 683.73468638822 509.04873150902 682.28156138822 C 512.20498150902 680.82843638822 515.07998150902 680.10187388822 517.67373150902 680.10187388822 C 521.26748150902 680.10187388822 524.29873150902 681.37531138822 526.76748150902 683.92218638822 C 529.23623150902 686.46906138822 530.47060650902 690.74249888822 530.47060650902 696.74249888822 L 530.47060650902 719.61749888822 L 538.01748150902 722.28937388822 L 537.26748150902 725.75812388822 L 513.92373150902 725.75812388822 L 514.67373150902 722.05499888822 L 519.12685650902 719.28937388822 L 519.12685650902 699.92999888822 C 519.12685650902 696.92999888822 518.79091900902 694.46906138822 518.11904400902 692.54718638822 C 517.44716900902 690.62531138822 516.64248150902 689.27374888822 515.70498150902 688.49249888822 C 515.17373150902 688.08624888822 514.57998150902 687.88312388822 513.92373150902 687.88312388822 C 512.45498150902 687.88312388822 510.26748150902 688.16437388822 507.36123150902 688.72687388822 C 504.45498150902 689.28937388822 502.12685650902 689.88312388822 500.37685650902 690.50812388822 C 500.40810650902 690.66437388822 500.46279400902 691.01593638822 500.54091900902 691.56281138822 C 500.61904400902 692.10968638822 500.65810650902 692.60187388822 500.65810650902 693.03937388822 L 500.70498150902 719.61749888822 L 507.82998150902 722.33624888822 L 507.03310650902 725.75812388822 L 482.14248150902 725.75812388822 L 482.89248150902 721.91437388822 L 489.31435650902 719.14874888822 L 489.31435650902 689.57062388822 L 482.42373150902 685.63312388822 Z M 583.41591900902 722.24249888822 C 585.55654400902 723.80499888822 586.62685650902 726.19562388822 586.62685650902 729.41437388822 C 586.62685650902 732.88312388822 585.54091900902 736.12531138822 583.36904400902 739.14093638822 C 581.19716900902 742.15656138822 577.99404400902 744.58624888822 573.75966900902 746.42999888822 C 569.52529400902 748.27374888822 564.48623150902 749.19562388822 558.64248150902 749.19562388822 C 555.70498150902 749.19562388822 552.72841900902 748.85968638822 549.71279400902 748.18781138822 C 546.69716900902 747.51593638822 544.36123150902 746.58624888822 542.70498150902 745.39874888822 C 540.57998150902 743.71124888822 539.51748150902 741.47687388822 539.51748150902 738.69562388822 C 539.51748150902 736.50812388822 540.33779400902 734.50031138822 541.97841900902 732.67218638822 C 543.61904400902 730.84406138822 545.73623150902 729.13312388822 548.32998150902 727.53937388822 C 546.45498150902 726.88312388822 544.98623150902 725.89093638822 543.92373150902 724.56281138822 C 542.86123150902 723.23468638822 542.32998150902 721.72687388822 542.32998150902 720.03937388822 C 542.32998150902 717.85187388822 543.25966900902 715.98468638822 545.11904400902 714.43781138822 C 546.97841900902 712.89093638822 549.12685650902 711.71124888822 551.56435650902 710.89874888822 C 549.06435650902 709.74249888822 547.10341900902 708.11749888822 545.68154400902 706.02374888822 C 544.25966900902 703.92999888822 543.54873150902 701.36749888822 543.54873150902 698.33624888822 C 543.54873150902 694.89874888822 544.28310650902 691.80499888822 545.75185650902 689.05499888822 C 547.22060650902 686.30499888822 549.49404400902 684.11749888822 552.57216900902 682.49249888822 C 555.65029400902 680.86749888822 559.51748150902 680.05499888822 564.17373150902 680.05499888822 C 566.14248150902 680.05499888822 568.05654400902 680.29718638822 569.91591900902 680.78156138822 C 571.77529400902 681.26593638822 573.45498150902 681.97687388822 574.95498150902 682.91437388822 C 576.98623150902 681.91437388822 579.17373150902 681.15656138822 581.51748150902 680.64093638822 C 583.86123150902 680.12531138822 585.97060650902 679.86749888822 587.84560650902 679.86749888822 L 588.73623150902 681.78937388822 L 580.62685650902 689.28937388822 C 581.40810650902 691.10187388822 581.79873150902 693.03937388822 581.79873150902 695.10187388822 C 581.79873150902 698.63312388822 580.97841900902 701.75031138822 579.33779400902 704.45343638822 C 577.69716900902 707.15656138822 575.36904400902 709.24249888822 572.35341900902 710.71124888822 C 569.33779400902 712.17999888822 565.84560650902 712.91437388822 561.87685650902 712.91437388822 C 559.47060650902 712.91437388822 557.07998150902 712.61749888822 554.70498150902 712.02374888822 C 553.11123150902 714.61749888822 552.31435650902 716.41437388822 552.31435650902 717.41437388822 C 552.31435650902 717.78937388822 552.44716900902 718.13312388822 552.71279400902 718.44562388822 C 552.97841900902 718.75812388822 553.31435650902 718.99249888822 553.72060650902 719.14874888822 C 554.59560650902 719.46124888822 556.26748150902 719.66437388822 558.73623150902 719.75812388822 C 561.20498150902 719.85187388822 565.98623150902 719.89874888822 573.07998150902 719.89874888822 C 577.82998150902 719.89874888822 581.27529400902 720.67999888822 583.41591900902 722.24249888822 Z M 554.44716900902 689.68781138822 C 554.15029400902 690.82843638822 554.00185650902 692.03937388822 554.00185650902 693.32062388822 C 554.00185650902 695.69562388822 554.47841900902 697.95343638822 555.43154400902 700.09406138822 C 556.38466900902 702.23468638822 557.73623150902 703.96124888822 559.48623150902 705.27374888822 C 561.23623150902 706.58624888822 563.25185650902 707.24249888822 565.53310650902 707.24249888822 C 567.53310650902 707.24249888822 568.98623150902 706.78937388822 569.89248150902 705.88312388822 C 570.42373150902 705.35187388822 570.82998150902 704.33624888822 571.11123150902 702.83624888822 C 571.39248150902 701.33624888822 571.53310650902 699.60187388822 571.53310650902 697.63312388822 C 571.53310650902 695.32062388822 571.11904400902 693.25031138822 570.29091900902 691.42218638822 C 569.46279400902 689.59406138822 568.22060650902 688.14093638822 566.56435650902 687.06281138822 C 564.90810650902 685.98468638822 562.87685650902 685.44562388822 560.47060650902 685.44562388822 C 559.43935650902 685.44562388822 558.45498150902 685.56281138822 557.51748150902 685.79718638822 C 556.57998150902 686.03156138822 555.95498150902 686.38312388822 555.64248150902 686.85187388822 C 555.14248150902 687.60187388822 554.74404400902 688.54718638822 554.44716900902 689.68781138822 Z M 576.24404400902 737.66437388822 C 576.79091900902 736.38312388822 577.06435650902 734.97687388822 577.06435650902 733.44562388822 C 577.06435650902 732.44562388822 576.96279400902 731.64874888822 576.75966900902 731.05499888822 C 576.55654400902 730.46124888822 576.10341900902 729.97687388822 575.40029400902 729.60187388822 C 574.69716900902 729.22687388822 573.62685650902 729.03937388822 572.18935650902 729.03937388822 C 566.78310650902 729.03937388822 562.51748150902 729.00031138822 559.39248150902 728.92218638822 C 556.26748150902 728.84406138822 553.65810650902 728.64874888822 551.56435650902 728.33624888822 C 550.84560650902 729.71124888822 550.19716900902 731.17218638822 549.61904400902 732.71906138822 C 549.04091900902 734.26593638822 548.75185650902 735.57062388822 548.75185650902 736.63312388822 C 548.75185650902 737.35187388822 548.89248150902 737.89874888822 549.17373150902 738.27374888822 C 549.98623150902 739.42999888822 551.75966900902 740.40656138822 554.49404400902 741.20343638822 C 557.22841900902 742.00031138822 560.28310650902 742.39874888822 563.65810650902 742.39874888822 C 565.84560650902 742.39874888822 567.95498150902 742.24249888822 569.98623150902 741.92999888822 C 572.01748150902 741.61749888822 573.54873150902 741.07062388822 574.57998150902 740.28937388822 C 575.14248150902 739.82062388822 575.69716900902 738.94562388822 576.24404400902 737.66437388822 Z M 621.22060650902 692.68781138822 C 623.09560650902 688.89093638822 625.72060650902 685.83624888822 629.09560650902 683.52374888822 C 632.47060650902 681.21124888822 636.28310650902 680.05499888822 640.53310650902 680.05499888822 C 644.65810650902 680.05499888822 648.36123150902 680.85968638822 651.64248150902 682.46906138822 C 654.92373150902 684.07843638822 657.53310650902 686.53937388822 659.47060650902 689.85187388822 C 661.40810650902 693.16437388822 662.37685650902 697.28937388822 662.37685650902 702.22687388822 C 662.37685650902 706.50812388822 661.42373150902 710.54718638822 659.51748150902 714.34406138822 C 657.61123150902 718.14093638822 654.98623150902 721.18781138822 651.64248150902 723.48468638822 C 648.29873150902 725.78156138822 644.59560650902 726.92999888822 640.53310650902 726.92999888822 C 636.31435650902 726.92999888822 632.54091900902 726.13312388822 629.21279400902 724.53937388822 C 625.88466900902 722.94562388822 623.25185650902 720.50031138822 621.31435650902 717.20343638822 C 619.37685650902 713.90656138822 618.40810650902 709.77374888822 618.40810650902 704.80499888822 C 618.40810650902 700.52374888822 619.34560650902 696.48468638822 621.22060650902 692.68781138822 Z M 646.72060650902 719.96906138822 C 647.75185650902 719.64093638822 648.56435650902 719.14874888822 649.15810650902 718.49249888822 C 649.81435650902 717.67999888822 650.32998150902 716.23468638822 650.70498150902 714.15656138822 C 651.07998150902 712.07843638822 651.26748150902 710.05499888822 651.26748150902 708.08624888822 C 651.26748150902 703.74249888822 650.65810650902 699.93781138822 649.43935650902 696.67218638822 C 648.22060650902 693.40656138822 646.54091900902 690.89874888822 644.40029400902 689.14874888822 C 642.25966900902 687.39874888822 639.84560650902 686.52374888822 637.15810650902 686.52374888822 C 634.59560650902 686.52374888822 632.73623150902 687.16437388822 631.57998150902 688.44562388822 C 630.98623150902 689.22687388822 630.49404400902 690.65656138822 630.10341900902 692.73468638822 C 629.71279400902 694.81281138822 629.51748150902 696.89874888822 629.51748150902 698.99249888822 C 629.51748150902 702.86749888822 630.04091900902 706.42999888822 631.08779400902 709.67999888822 C 632.13466900902 712.92999888822 633.70498150902 715.53937388822 635.79873150902 717.50812388822 C 637.89248150902 719.47687388822 640.40810650902 720.46124888822 643.34560650902 720.46124888822 C 644.56435650902 720.46124888822 645.68935650902 720.29718638822 646.72060650902 719.96906138822 Z M 675.40810650902 719.14874888822 L 675.40810650902 688.25812388822 L 667.90810650902 685.35187388822 L 668.75185650902 681.22687388822 L 675.40810650902 681.22687388822 C 675.40810650902 675.50812388822 676.10341900902 670.85968638822 677.49404400902 667.28156138822 C 678.88466900902 663.70343638822 681.06435650902 661.05499888822 684.03310650902 659.33624888822 C 687.00185650902 657.61749888822 690.87685650902 656.75812388822 695.65810650902 656.75812388822 C 697.78310650902 656.75812388822 699.59560650902 656.89093638822 701.09560650902 657.15656138822 C 702.59560650902 657.42218638822 703.95498150902 657.85187388822 705.17373150902 658.44562388822 C 706.23623150902 658.94562388822 707.14248150902 659.60187388822 707.89248150902 660.41437388822 C 708.64248150902 661.22687388822 709.01748150902 662.03937388822 709.01748150902 662.85187388822 C 709.01748150902 663.72687388822 708.60341900902 664.73468638822 707.77529400902 665.87531138822 C 706.94716900902 667.01593638822 705.97060650902 668.00031138822 704.84560650902 668.82843638822 C 703.72060650902 669.65656138822 702.75185650902 670.07062388822 701.93935650902 670.07062388822 C 701.34560650902 670.07062388822 700.67373150902 669.87531138822 699.92373150902 669.48468638822 C 699.17373150902 669.09406138822 698.48623150902 668.64874888822 697.86123150902 668.14874888822 L 696.22060650902 659.99249888822 C 693.56435650902 660.55499888822 691.54091900902 661.82062388822 690.15029400902 663.78937388822 C 688.75966900902 665.75812388822 687.83779400902 668.15656138822 687.38466900902 670.98468638822 C 686.93154400902 673.81281138822 686.70498150902 677.22687388822 686.70498150902 681.22687388822 L 701.42373150902 681.22687388822 L 700.76748150902 684.92999888822 L 686.70498150902 688.16437388822 L 686.70498150902 719.61749888822 L 698.84560650902 722.28937388822 L 698.09560650902 725.75812388822 L 668.04873150902 725.75812388822 L 668.79873150902 721.91437388822 L 675.40810650902 719.14874888822 Z M 754.86123150902 718.53937388822 L 754.86123150902 665.38312388822 L 740.32998150902 667.30499888822 L 733.90810650902 679.07062388822 L 728.70498150902 678.03937388822 L 732.54873150902 660.46124888822 L 738.73623150902 660.88312388822 L 784.81435650902 660.88312388822 L 790.76748150902 660.27374888822 L 792.78310650902 678.17999888822 L 787.48623150902 679.35187388822 L 781.95498150902 667.35187388822 L 766.86123150902 665.33624888822 L 766.86123150902 718.58624888822 L 777.50185650902 721.53937388822 L 776.65810650902 725.75812388822 L 744.73623150902 725.75812388822 L 745.57998150902 721.53937388822 L 754.86123150902 718.53937388822 Z M 791.65810650902 692.68781138822 C 793.53310650902 688.89093638822 796.15810650902 685.83624888822 799.53310650902 683.52374888822 C 802.90810650902 681.21124888822 806.72060650902 680.05499888822 810.97060650902 680.05499888822 C 815.09560650902 680.05499888822 818.79873150902 680.85968638822 822.07998150902 682.46906138822 C 825.36123150902 684.07843638822 827.97060650902 686.53937388822 829.90810650902 689.85187388822 C 831.84560650902 693.16437388822 832.81435650902 697.28937388822 832.81435650902 702.22687388822 C 832.81435650902 706.50812388822 831.86123150902 710.54718638822 829.95498150902 714.34406138822 C 828.04873150902 718.14093638822 825.42373150902 721.18781138822 822.07998150902 723.48468638822 C 818.73623150902 725.78156138822 815.03310650902 726.92999888822 810.97060650902 726.92999888822 C 806.75185650902 726.92999888822 802.97841900902 726.13312388822 799.65029400902 724.53937388822 C 796.32216900902 722.94562388822 793.68935650902 720.50031138822 791.75185650902 717.20343638822 C 789.81435650902 713.90656138822 788.84560650902 709.77374888822 788.84560650902 704.80499888822 C 788.84560650902 700.52374888822 789.78310650902 696.48468638822 791.65810650902 692.68781138822 Z M 817.15810650902 719.96906138822 C 818.18935650902 719.64093638822 819.00185650902 719.14874888822 819.59560650902 718.49249888822 C 820.25185650902 717.67999888822 820.76748150902 716.23468638822 821.14248150902 714.15656138822 C 821.51748150902 712.07843638822 821.70498150902 710.05499888822 821.70498150902 708.08624888822 C 821.70498150902 703.74249888822 821.09560650902 699.93781138822 819.87685650902 696.67218638822 C 818.65810650902 693.40656138822 816.97841900902 690.89874888822 814.83779400902 689.14874888822 C 812.69716900902 687.39874888822 810.28310650902 686.52374888822 807.59560650902 686.52374888822 C 805.03310650902 686.52374888822 803.17373150902 687.16437388822 802.01748150902 688.44562388822 C 801.42373150902 689.22687388822 800.93154400902 690.65656138822 800.54091900902 692.73468638822 C 800.15029400902 694.81281138822 799.95498150902 696.89874888822 799.95498150902 698.99249888822 C 799.95498150902 702.86749888822 800.47841900902 706.42999888822 801.52529400902 709.67999888822 C 802.57216900902 712.92999888822 804.14248150902 715.53937388822 806.23623150902 717.50812388822 C 808.32998150902 719.47687388822 810.84560650902 720.46124888822 813.78310650902 720.46124888822 C 815.00185650902 720.46124888822 816.12685650902 720.29718638822 817.15810650902 719.96906138822 Z M 837.54873150902 661.77374888822 L 837.97060650902 659.57062388822 L 855.82998150902 656.75812388822 L 855.82998150902 719.61749888822 L 863.14248150902 722.33624888822 L 862.34560650902 725.75812388822 L 837.40810650902 725.75812388822 L 838.15810650902 722.05499888822 L 844.48623150902 719.42999888822 L 844.48623150902 665.71124888822 L 837.54873150902 661.77374888822 Z M 885.68935650902 719.94562388822 L 892.34560650902 722.47687388822 L 891.59560650902 725.75812388822 L 872.56435650902 725.75812388822 L 873.12685650902 722.66437388822 L 857.75185650902 699.97687388822 L 872.47060650902 686.57062388822 L 866.93935650902 684.50812388822 L 867.59560650902 681.22687388822 L 888.59560650902 681.22687388822 L 887.84560650902 684.83624888822 L 881.42373150902 686.85187388822 L 869.18935650902 697.53937388822 L 885.68935650902 719.94562388822 Z M 944.00185650902 681.22687388822 L 943.39248150902 684.55499888822 L 938.04873150902 687.17999888822 L 926.51748150902 718.16437388822 C 924.07998150902 724.63312388822 921.95498150902 729.86749888822 920.14248150902 733.86749888822 C 918.32998150902 737.86749888822 916.48623150902 741.08624888822 914.61123150902 743.52374888822 C 912.73623150902 745.96124888822 910.70498150902 747.60187388822 908.51748150902 748.44562388822 C 907.23623150902 748.94562388822 905.76748150902 749.19562388822 904.11123150902 749.19562388822 C 902.39248150902 749.19562388822 900.63466900902 748.92999888822 898.83779400902 748.39874888822 C 897.04091900902 747.86749888822 895.54091900902 747.11749888822 894.33779400902 746.14874888822 C 893.13466900902 745.17999888822 892.53310650902 744.05499888822 892.53310650902 742.77374888822 C 892.53310650902 741.92999888822 892.95498150902 740.91437388822 893.79873150902 739.72687388822 C 894.64248150902 738.53937388822 895.63466900902 737.50812388822 896.77529400902 736.63312388822 C 897.91591900902 735.75812388822 898.89248150902 735.32062388822 899.70498150902 735.32062388822 C 900.29873150902 735.32062388822 901.02529400902 735.53156138822 901.88466900902 735.95343638822 C 902.74404400902 736.37531138822 903.43935650902 736.83624888822 903.97060650902 737.33624888822 L 905.61123150902 745.39874888822 C 906.29873150902 745.02374888822 907.31435650902 743.87531138822 908.65810650902 741.95343638822 C 910.00185650902 740.03156138822 911.43154400902 737.69562388822 912.94716900902 734.94562388822 C 914.46279400902 732.19562388822 915.82998150902 729.44562388822 917.04873150902 726.69562388822 L 913.90810650902 727.07062388822 L 897.31435650902 687.27374888822 L 890.65810650902 684.55499888822 L 891.26748150902 681.22687388822 L 915.68935650902 681.22687388822 L 914.98623150902 684.60187388822 L 909.54873150902 687.03937388822 L 920.75185650902 716.10187388822 L 930.36123150902 687.13312388822 L 924.40810650902 684.46124888822 L 924.97060650902 681.22687388822 L 944.00185650902 681.22687388822 Z M 948.64248150902 692.68781138822 C 950.51748150902 688.89093638822 953.14248150902 685.83624888822 956.51748150902 683.52374888822 C 959.89248150902 681.21124888822 963.70498150902 680.05499888822 967.95498150902 680.05499888822 C 972.07998150902 680.05499888822 975.78310650902 680.85968638822 979.06435650902 682.46906138822 C 982.34560650902 684.07843638822 984.95498150902 686.53937388822 986.89248150902 689.85187388822 C 988.82998150902 693.16437388822 989.79873150902 697.28937388822 989.79873150902 702.22687388822 C 989.79873150902 706.50812388822 988.84560650902 710.54718638822 986.93935650902 714.34406138822 C 985.03310650902 718.14093638822 982.40810650902 721.18781138822 979.06435650902 723.48468638822 C 975.72060650902 725.78156138822 972.01748150902 726.92999888822 967.95498150902 726.92999888822 C 963.73623150902 726.92999888822 959.96279400902 726.13312388822 956.63466900902 724.53937388822 C 953.30654400902 722.94562388822 950.67373150902 720.50031138822 948.73623150902 717.20343638822 C 946.79873150902 713.90656138822 945.82998150902 709.77374888822 945.82998150902 704.80499888822 C 945.82998150902 700.52374888822 946.76748150902 696.48468638822 948.64248150902 692.68781138822 Z M 974.14248150902 719.96906138822 C 975.17373150902 719.64093638822 975.98623150902 719.14874888822 976.57998150902 718.49249888822 C 977.23623150902 717.67999888822 977.75185650902 716.23468638822 978.12685650902 714.15656138822 C 978.50185650902 712.07843638822 978.68935650902 710.05499888822 978.68935650902 708.08624888822 C 978.68935650902 703.74249888822 978.07998150902 699.93781138822 976.86123150902 696.67218638822 C 975.64248150902 693.40656138822 973.96279400902 690.89874888822 971.82216900902 689.14874888822 C 969.68154400902 687.39874888822 967.26748150902 686.52374888822 964.57998150902 686.52374888822 C 962.01748150902 686.52374888822 960.15810650902 687.16437388822 959.00185650902 688.44562388822 C 958.40810650902 689.22687388822 957.91591900902 690.65656138822 957.52529400902 692.73468638822 C 957.13466900902 694.81281138822 956.93935650902 696.89874888822 956.93935650902 698.99249888822 C 956.93935650902 702.86749888822 957.46279400902 706.42999888822 958.50966900902 709.67999888822 C 959.55654400902 712.92999888822 961.12685650902 715.53937388822 963.22060650902 717.50812388822 C 965.31435650902 719.47687388822 967.82998150902 720.46124888822 970.76748150902 720.46124888822 C 971.98623150902 720.46124888822 973.11123150902 720.29718638822 974.14248150902 719.96906138822 Z"/><path id="text" fill="#ececec" transform="matrix(0.3134678281364676 0 0 0.3134678281364676 230.75622888653072 101.28686934058595)" d="M 299.00421301804 1384.41224777645 L 299.00421301804 1435.19624777645 C 299.00421301804 1440.31624777645 297.43621301804 1444.42824777645 294.30021301804 1447.53224777645 C 291.16421301804 1450.63624777645 286.97221301804 1452.18824777645 281.72421301804 1452.18824777645 C 276.28421301804 1452.18824777645 271.94821301804 1450.54024777645 268.71621301804 1447.24424777645 C 265.48421301804 1443.94824777645 263.86821301804 1439.48424777645 263.86821301804 1433.85224777645 L 270.68421301804 1433.85224777645 C 270.74821301804 1437.50024777645 271.66021301804 1440.47624777645 273.42021301804 1442.78024777645 C 275.18021301804 1445.08424777645 277.94821301804 1446.23624777645 281.72421301804 1446.23624777645 C 285.30821301804 1446.23624777645 287.96421301804 1445.18024777645 289.69221301804 1443.06824777645 C 291.42021301804 1440.95624777645 292.28421301804 1438.33224777645 292.28421301804 1435.19624777645 L 292.28421301804 1384.41224777645 L 299.00421301804 1384.41224777645 Z M 316.04421301804 1411.05224777645 C 318.18821301804 1406.98824777645 321.16421301804 1403.85224777645 324.97221301804 1401.64424777645 C 328.78021301804 1399.43624777645 333.08421301804 1398.33224777645 337.88421301804 1398.33224777645 C 342.87621301804 1398.33224777645 347.18021301804 1399.48424777645 350.79621301804 1401.78824777645 C 354.41221301804 1404.09224777645 357.02021301804 1407.03624777645 358.62021301804 1410.62024777645 L 358.62021301804 1399.10024777645 L 365.34021301804 1399.10024777645 L 365.34021301804 1451.51624777645 L 358.62021301804 1451.51624777645 L 358.62021301804 1439.90024777645 C 356.95621301804 1443.48424777645 354.31621301804 1446.44424777645 350.70021301804 1448.78024777645 C 347.08421301804 1451.11624777645 342.78021301804 1452.28424777645 337.78821301804 1452.28424777645 C 333.05221301804 1452.28424777645 328.78021301804 1451.16424777645 324.97221301804 1448.92424777645 C 321.16421301804 1446.68424777645 318.18821301804 1443.51624777645 316.04421301804 1439.42024777645 C 313.90021301804 1435.32424777645 312.82821301804 1430.58824777645 312.82821301804 1425.21224777645 C 312.82821301804 1419.83624777645 313.90021301804 1415.11624777645 316.04421301804 1411.05224777645 Z M 356.02821301804 1414.17224777645 C 354.30021301804 1410.97224777645 351.94821301804 1408.50824777645 348.97221301804 1406.78024777645 C 345.99621301804 1405.05224777645 342.71621301804 1404.18824777645 339.13221301804 1404.18824777645 C 335.42021301804 1404.18824777645 332.09221301804 1405.02024777645 329.14821301804 1406.68424777645 C 326.20421301804 1408.34824777645 323.88421301804 1410.76424777645 322.18821301804 1413.93224777645 C 320.49221301804 1417.10024777645 319.64421301804 1420.86024777645 319.64421301804 1425.21224777645 C 319.64421301804 1429.50024777645 320.49221301804 1433.26024777645 322.18821301804 1436.49224777645 C 323.88421301804 1439.72424777645 326.20421301804 1442.18824777645 329.14821301804 1443.88424777645 C 332.09221301804 1445.58024777645 335.42021301804 1446.42824777645 339.13221301804 1446.42824777645 C 342.71621301804 1446.42824777645 345.99621301804 1445.56424777645 348.97221301804 1443.83624777645 C 351.94821301804 1442.10824777645 354.30021301804 1439.64424777645 356.02821301804 1436.44424777645 C 357.75621301804 1433.24424777645 358.62021301804 1429.53224777645 358.62021301804 1425.30824777645 C 358.62021301804 1421.08424777645 357.75621301804 1417.37224777645 356.02821301804 1414.17224777645 Z M 395.24421301804 1401.83624777645 C 398.86021301804 1399.50024777645 403.16421301804 1398.33224777645 408.15621301804 1398.33224777645 C 412.89221301804 1398.33224777645 417.16421301804 1399.43624777645 420.97221301804 1401.64424777645 C 424.78021301804 1403.85224777645 427.75621301804 1406.98824777645 429.90021301804 1411.05224777645 C 432.04421301804 1415.11624777645 433.11621301804 1419.83624777645 433.11621301804 1425.21224777645 C 433.11621301804 1430.58824777645 432.04421301804 1435.32424777645 429.90021301804 1439.42024777645 C 427.75621301804 1443.51624777645 424.78021301804 1446.68424777645 420.97221301804 1448.92424777645 C 417.16421301804 1451.16424777645 412.89221301804 1452.28424777645 408.15621301804 1452.28424777645 C 403.22821301804 1452.28424777645 398.94021301804 1451.11624777645 395.29221301804 1448.78024777645 C 391.64421301804 1446.44424777645 388.98821301804 1443.51624777645 387.32421301804 1439.99624777645 L 387.32421301804 1476.28424777645 L 380.70021301804 1476.28424777645 L 380.70021301804 1399.10024777645 L 387.32421301804 1399.10024777645 L 387.32421301804 1410.62024777645 C 388.98821301804 1407.10024777645 391.62821301804 1404.17224777645 395.24421301804 1401.83624777645 Z M 423.75621301804 1413.93224777645 C 422.06021301804 1410.76424777645 419.74021301804 1408.34824777645 416.79621301804 1406.68424777645 C 413.85221301804 1405.02024777645 410.52421301804 1404.18824777645 406.81221301804 1404.18824777645 C 403.22821301804 1404.18824777645 399.94821301804 1405.05224777645 396.97221301804 1406.78024777645 C 393.99621301804 1408.50824777645 391.64421301804 1410.97224777645 389.91621301804 1414.17224777645 C 388.18821301804 1417.37224777645 387.32421301804 1421.08424777645 387.32421301804 1425.30824777645 C 387.32421301804 1429.53224777645 388.18821301804 1433.24424777645 389.91621301804 1436.44424777645 C 391.64421301804 1439.64424777645 393.99621301804 1442.10824777645 396.97221301804 1443.83624777645 C 399.94821301804 1445.56424777645 403.22821301804 1446.42824777645 406.81221301804 1446.42824777645 C 410.52421301804 1446.42824777645 413.85221301804 1445.58024777645 416.79621301804 1443.88424777645 C 419.74021301804 1442.18824777645 422.06021301804 1439.72424777645 423.75621301804 1436.49224777645 C 425.45221301804 1433.26024777645 426.30021301804 1429.50024777645 426.30021301804 1425.21224777645 C 426.30021301804 1420.86024777645 425.45221301804 1417.10024777645 423.75621301804 1413.93224777645 Z M 445.64421301804 1411.05224777645 C 447.78821301804 1406.98824777645 450.76421301804 1403.85224777645 454.57221301804 1401.64424777645 C 458.38021301804 1399.43624777645 462.68421301804 1398.33224777645 467.48421301804 1398.33224777645 C 472.47621301804 1398.33224777645 476.78021301804 1399.48424777645 480.39621301804 1401.78824777645 C 484.01221301804 1404.09224777645 486.62021301804 1407.03624777645 488.22021301804 1410.62024777645 L 488.22021301804 1399.10024777645 L 494.94021301804 1399.10024777645 L 494.94021301804 1451.51624777645 L 488.22021301804 1451.51624777645 L 488.22021301804 1439.90024777645 C 486.55621301804 1443.48424777645 483.91621301804 1446.44424777645 480.30021301804 1448.78024777645 C 476.68421301804 1451.11624777645 472.38021301804 1452.28424777645 467.38821301804 1452.28424777645 C 462.65221301804 1452.28424777645 458.38021301804 1451.16424777645 454.57221301804 1448.92424777645 C 450.76421301804 1446.68424777645 447.78821301804 1443.51624777645 445.64421301804 1439.42024777645 C 443.50021301804 1435.32424777645 442.42821301804 1430.58824777645 442.42821301804 1425.21224777645 C 442.42821301804 1419.83624777645 443.50021301804 1415.11624777645 445.64421301804 1411.05224777645 Z M 485.62821301804 1414.17224777645 C 483.90021301804 1410.97224777645 481.54821301804 1408.50824777645 478.57221301804 1406.78024777645 C 475.59621301804 1405.05224777645 472.31621301804 1404.18824777645 468.73221301804 1404.18824777645 C 465.02021301804 1404.18824777645 461.69221301804 1405.02024777645 458.74821301804 1406.68424777645 C 455.80421301804 1408.34824777645 453.48421301804 1410.76424777645 451.78821301804 1413.93224777645 C 450.09221301804 1417.10024777645 449.24421301804 1420.86024777645 449.24421301804 1425.21224777645 C 449.24421301804 1429.50024777645 450.09221301804 1433.26024777645 451.78821301804 1436.49224777645 C 453.48421301804 1439.72424777645 455.80421301804 1442.18824777645 458.74821301804 1443.88424777645 C 461.69221301804 1445.58024777645 465.02021301804 1446.42824777645 468.73221301804 1446.42824777645 C 472.31621301804 1446.42824777645 475.59621301804 1445.56424777645 478.57221301804 1443.83624777645 C 481.54821301804 1442.10824777645 483.90021301804 1439.64424777645 485.62821301804 1436.44424777645 C 487.35621301804 1433.24424777645 488.22021301804 1429.53224777645 488.22021301804 1425.30824777645 C 488.22021301804 1421.08424777645 487.35621301804 1417.37224777645 485.62821301804 1414.17224777645 Z M 550.23621301804 1403.94824777645 C 554.20421301804 1407.82024777645 556.18821301804 1413.43624777645 556.18821301804 1420.79624777645 L 556.18821301804 1451.51624777645 L 549.56421301804 1451.51624777645 L 549.56421301804 1421.56424777645 C 549.56421301804 1415.86824777645 548.14021301804 1411.51624777645 545.29221301804 1408.50824777645 C 542.44421301804 1405.50024777645 538.55621301804 1403.99624777645 533.62821301804 1403.99624777645 C 528.57221301804 1403.99624777645 524.54021301804 1405.59624777645 521.53221301804 1408.79624777645 C 518.52421301804 1411.99624777645 517.02021301804 1416.70024777645 517.02021301804 1422.90824777645 L 517.02021301804 1451.51624777645 L 510.30021301804 1451.51624777645 L 510.30021301804 1399.10024777645 L 517.02021301804 1399.10024777645 L 517.02021301804 1408.02824777645 C 518.68421301804 1404.82824777645 521.08421301804 1402.38024777645 524.22021301804 1400.68424777645 C 527.35621301804 1398.98824777645 530.90821301804 1398.14024777645 534.87621301804 1398.14024777645 C 541.14821301804 1398.14024777645 546.26821301804 1400.07624777645 550.23621301804 1403.94824777645 Z M 618.30021301804 1427.90024777645 L 574.81221301804 1427.90024777645 C 575.00421301804 1431.86824777645 575.96421301804 1435.26024777645 577.69221301804 1438.07624777645 C 579.42021301804 1440.89224777645 581.69221301804 1443.02024777645 584.50821301804 1444.46024777645 C 587.32421301804 1445.90024777645 590.39621301804 1446.62024777645 593.72421301804 1446.62024777645 C 598.07621301804 1446.62024777645 601.74021301804 1445.56424777645 604.71621301804 1443.45224777645 C 607.69221301804 1441.34024777645 609.66021301804 1438.49224777645 610.62021301804 1434.90824777645 L 617.72421301804 1434.90824777645 C 616.44421301804 1440.02824777645 613.70821301804 1444.20424777645 609.51621301804 1447.43624777645 C 605.32421301804 1450.66824777645 600.06021301804 1452.28424777645 593.72421301804 1452.28424777645 C 588.79621301804 1452.28424777645 584.38021301804 1451.18024777645 580.47621301804 1448.97224777645 C 576.57221301804 1446.76424777645 573.51621301804 1443.62824777645 571.30821301804 1439.56424777645 C 569.10021301804 1435.50024777645 567.99621301804 1430.74824777645 567.99621301804 1425.30824777645 C 567.99621301804 1419.86824777645 569.08421301804 1415.10024777645 571.26021301804 1411.00424777645 C 573.43621301804 1406.90824777645 576.47621301804 1403.77224777645 580.38021301804 1401.59624777645 C 584.28421301804 1399.42024777645 588.73221301804 1398.33224777645 593.72421301804 1398.33224777645 C 598.71621301804 1398.33224777645 603.08421301804 1399.42024777645 606.82821301804 1401.59624777645 C 610.57221301804 1403.77224777645 613.45221301804 1406.70024777645 615.46821301804 1410.38024777645 C 617.48421301804 1414.06024777645 618.49221301804 1418.14024777645 618.49221301804 1422.62024777645 C 618.49221301804 1424.92424777645 618.42821301804 1426.68424777645 618.30021301804 1427.90024777645 Z M 609.32421301804 1412.44424777645 C 607.69221301804 1409.69224777645 605.46821301804 1407.61224777645 602.65221301804 1406.20424777645 C 599.83621301804 1404.79624777645 596.76421301804 1404.09224777645 593.43621301804 1404.09224777645 C 588.44421301804 1404.09224777645 584.18821301804 1405.69224777645 580.66821301804 1408.89224777645 C 577.14821301804 1412.09224777645 575.19621301804 1416.60424777645 574.81221301804 1422.42824777645 L 611.67621301804 1422.42824777645 C 611.74021301804 1418.52424777645 610.95621301804 1415.19624777645 609.32421301804 1412.44424777645 Z M 634.09221301804 1448.10824777645 C 630.28421301804 1445.32424777645 628.15621301804 1441.53224777645 627.70821301804 1436.73224777645 L 634.62021301804 1436.73224777645 C 634.94021301804 1439.67624777645 636.33221301804 1442.06024777645 638.79621301804 1443.88424777645 C 641.26021301804 1445.70824777645 644.57221301804 1446.62024777645 648.73221301804 1446.62024777645 C 652.38021301804 1446.62024777645 655.24421301804 1445.75624777645 657.32421301804 1444.02824777645 C 659.40421301804 1442.30024777645 660.44421301804 1440.15624777645 660.44421301804 1437.59624777645 C 660.44421301804 1435.80424777645 659.86821301804 1434.33224777645 658.71621301804 1433.18024777645 C 657.56421301804 1432.02824777645 656.10821301804 1431.11624777645 654.34821301804 1430.44424777645 C 652.58821301804 1429.77224777645 650.20421301804 1429.05224777645 647.19621301804 1428.28424777645 C 643.29221301804 1427.26024777645 640.12421301804 1426.23624777645 637.69221301804 1425.21224777645 C 635.26021301804 1424.18824777645 633.19621301804 1422.66824777645 631.50021301804 1420.65224777645 C 629.80421301804 1418.63624777645 628.95621301804 1415.93224777645 628.95621301804 1412.54024777645 C 628.95621301804 1409.98024777645 629.72421301804 1407.61224777645 631.26021301804 1405.43624777645 C 632.79621301804 1403.26024777645 634.97221301804 1401.53224777645 637.78821301804 1400.25224777645 C 640.60421301804 1398.97224777645 643.80421301804 1398.33224777645 647.38821301804 1398.33224777645 C 653.02021301804 1398.33224777645 657.56421301804 1399.75624777645 661.02021301804 1402.60424777645 C 664.47621301804 1405.45224777645 666.33221301804 1409.37224777645 666.58821301804 1414.36424777645 L 659.86821301804 1414.36424777645 C 659.67621301804 1411.29224777645 658.47621301804 1408.81224777645 656.26821301804 1406.92424777645 C 654.06021301804 1405.03624777645 651.03621301804 1404.09224777645 647.19621301804 1404.09224777645 C 643.80421301804 1404.09224777645 641.05221301804 1404.89224777645 638.94021301804 1406.49224777645 C 636.82821301804 1408.09224777645 635.77221301804 1410.07624777645 635.77221301804 1412.44424777645 C 635.77221301804 1414.49224777645 636.39621301804 1416.17224777645 637.64421301804 1417.48424777645 C 638.89221301804 1418.79624777645 640.44421301804 1419.82024777645 642.30021301804 1420.55624777645 C 644.15621301804 1421.29224777645 646.65221301804 1422.10824777645 649.78821301804 1423.00424777645 C 653.56421301804 1424.02824777645 656.57221301804 1425.02024777645 658.81221301804 1425.98024777645 C 661.05221301804 1426.94024777645 662.97221301804 1428.34824777645 664.57221301804 1430.20424777645 C 666.17221301804 1432.06024777645 667.00421301804 1434.52424777645 667.06821301804 1437.59624777645 C 667.06821301804 1440.41224777645 666.30021301804 1442.92424777645 664.76421301804 1445.13224777645 C 663.22821301804 1447.34024777645 661.08421301804 1449.08424777645 658.33221301804 1450.36424777645 C 655.58021301804 1451.64424777645 652.41221301804 1452.28424777645 648.82821301804 1452.28424777645 C 642.81221301804 1452.28424777645 637.90021301804 1450.89224777645 634.09221301804 1448.10824777645 Z M 726.97221301804 1427.90024777645 L 683.48421301804 1427.90024777645 C 683.67621301804 1431.86824777645 684.63621301804 1435.26024777645 686.36421301804 1438.07624777645 C 688.09221301804 1440.89224777645 690.36421301804 1443.02024777645 693.18021301804 1444.46024777645 C 695.99621301804 1445.90024777645 699.06821301804 1446.62024777645 702.39621301804 1446.62024777645 C 706.74821301804 1446.62024777645 710.41221301804 1445.56424777645 713.38821301804 1443.45224777645 C 716.36421301804 1441.34024777645 718.33221301804 1438.49224777645 719.29221301804 1434.90824777645 L 726.39621301804 1434.90824777645 C 725.11621301804 1440.02824777645 722.38021301804 1444.20424777645 718.18821301804 1447.43624777645 C 713.99621301804 1450.66824777645 708.73221301804 1452.28424777645 702.39621301804 1452.28424777645 C 697.46821301804 1452.28424777645 693.05221301804 1451.18024777645 689.14821301804 1448.97224777645 C 685.24421301804 1446.76424777645 682.18821301804 1443.62824777645 679.98021301804 1439.56424777645 C 677.77221301804 1435.50024777645 676.66821301804 1430.74824777645 676.66821301804 1425.30824777645 C 676.66821301804 1419.86824777645 677.75621301804 1415.10024777645 679.93221301804 1411.00424777645 C 682.10821301804 1406.90824777645 685.14821301804 1403.77224777645 689.05221301804 1401.59624777645 C 692.95621301804 1399.42024777645 697.40421301804 1398.33224777645 702.39621301804 1398.33224777645 C 707.38821301804 1398.33224777645 711.75621301804 1399.42024777645 715.50021301804 1401.59624777645 C 719.24421301804 1403.77224777645 722.12421301804 1406.70024777645 724.14021301804 1410.38024777645 C 726.15621301804 1414.06024777645 727.16421301804 1418.14024777645 727.16421301804 1422.62024777645 C 727.16421301804 1424.92424777645 727.10021301804 1426.68424777645 726.97221301804 1427.90024777645 Z M 717.99621301804 1412.44424777645 C 716.36421301804 1409.69224777645 714.14021301804 1407.61224777645 711.32421301804 1406.20424777645 C 708.50821301804 1404.79624777645 705.43621301804 1404.09224777645 702.10821301804 1404.09224777645 C 697.11621301804 1404.09224777645 692.86021301804 1405.69224777645 689.34021301804 1408.89224777645 C 685.82021301804 1412.09224777645 683.86821301804 1416.60424777645 683.48421301804 1422.42824777645 L 720.34821301804 1422.42824777645 C 720.41221301804 1418.52424777645 719.62821301804 1415.19624777645 717.99621301804 1412.44424777645 Z M 818.55621301804 1403.99624777645 C 816.63621301804 1399.58024777645 813.70821301804 1396.10824777645 809.77221301804 1393.58024777645 C 805.83621301804 1391.05224777645 801.21221301804 1389.78824777645 795.90021301804 1389.78824777645 C 790.90821301804 1389.78824777645 786.42821301804 1390.94024777645 782.46021301804 1393.24424777645 C 778.49221301804 1395.54824777645 775.35621301804 1398.82824777645 773.05221301804 1403.08424777645 C 770.74821301804 1407.34024777645 769.59621301804 1412.28424777645 769.59621301804 1417.91624777645 C 769.59621301804 1423.54824777645 770.74821301804 1428.50824777645 773.05221301804 1432.79624777645 C 775.35621301804 1437.08424777645 778.49221301804 1440.38024777645 782.46021301804 1442.68424777645 C 786.42821301804 1444.98824777645 790.90821301804 1446.14024777645 795.90021301804 1446.14024777645 C 800.57221301804 1446.14024777645 804.78021301804 1445.13224777645 808.52421301804 1443.11624777645 C 812.26821301804 1441.10024777645 815.27621301804 1438.22024777645 817.54821301804 1434.47624777645 C 819.82021301804 1430.73224777645 821.11621301804 1426.36424777645 821.43621301804 1421.37224777645 L 793.21221301804 1421.37224777645 L 793.21221301804 1415.90024777645 L 828.54021301804 1415.90024777645 L 828.54021301804 1420.79624777645 C 828.22021301804 1426.68424777645 826.62021301804 1432.01224777645 823.74021301804 1436.78024777645 C 820.86021301804 1441.54824777645 817.00421301804 1445.30824777645 812.17221301804 1448.06024777645 C 807.34021301804 1450.81224777645 801.91621301804 1452.18824777645 795.90021301804 1452.18824777645 C 789.69221301804 1452.18824777645 784.06021301804 1450.73224777645 779.00421301804 1447.82024777645 C 773.94821301804 1444.90824777645 769.96421301804 1440.84424777645 767.05221301804 1435.62824777645 C 764.14021301804 1430.41224777645 762.68421301804 1424.50824777645 762.68421301804 1417.91624777645 C 762.68421301804 1411.32424777645 764.14021301804 1405.42024777645 767.05221301804 1400.20424777645 C 769.96421301804 1394.98824777645 773.94821301804 1390.92424777645 779.00421301804 1388.01224777645 C 784.06021301804 1385.10024777645 789.69221301804 1383.64424777645 795.90021301804 1383.64424777645 C 803.06821301804 1383.64424777645 809.34021301804 1385.43624777645 814.71621301804 1389.02024777645 C 820.09221301804 1392.60424777645 823.99621301804 1397.59624777645 826.42821301804 1403.99624777645 L 818.55621301804 1403.99624777645 Z M 854.31621301804 1400.82824777645 C 857.35621301804 1399.03624777645 861.08421301804 1398.14024777645 865.50021301804 1398.14024777645 L 865.50021301804 1405.14824777645 L 863.67621301804 1405.14824777645 C 858.81221301804 1405.14824777645 854.90821301804 1406.46024777645 851.96421301804 1409.08424777645 C 849.02021301804 1411.70824777645 847.54821301804 1416.09224777645 847.54821301804 1422.23624777645 L 847.54821301804 1451.51624777645 L 840.82821301804 1451.51624777645 L 840.82821301804 1399.10024777645 L 847.54821301804 1399.10024777645 L 847.54821301804 1408.41224777645 C 849.02021301804 1405.14824777645 851.27621301804 1402.62024777645 854.31621301804 1400.82824777645 Z M 885.22821301804 1448.97224777645 C 881.29221301804 1446.76424777645 878.18821301804 1443.62824777645 875.91621301804 1439.56424777645 C 873.64421301804 1435.50024777645 872.50821301804 1430.74824777645 872.50821301804 1425.30824777645 C 872.50821301804 1419.86824777645 873.66021301804 1415.11624777645 875.96421301804 1411.05224777645 C 878.26821301804 1406.98824777645 881.40421301804 1403.85224777645 885.37221301804 1401.64424777645 C 889.34021301804 1399.43624777645 893.78821301804 1398.33224777645 898.71621301804 1398.33224777645 C 903.64421301804 1398.33224777645 908.10821301804 1399.43624777645 912.10821301804 1401.64424777645 C 916.10821301804 1403.85224777645 919.24421301804 1406.98824777645 921.51621301804 1411.05224777645 C 923.78821301804 1415.11624777645 924.92421301804 1419.86824777645 924.92421301804 1425.30824777645 C 924.92421301804 1430.68424777645 923.77221301804 1435.42024777645 921.46821301804 1439.51624777645 C 919.16421301804 1443.61224777645 915.99621301804 1446.76424777645 911.96421301804 1448.97224777645 C 907.93221301804 1451.18024777645 903.45221301804 1452.28424777645 898.52421301804 1452.28424777645 C 893.59621301804 1452.28424777645 889.16421301804 1451.18024777645 885.22821301804 1448.97224777645 Z M 908.12421301804 1444.07624777645 C 911.06821301804 1442.50824777645 913.45221301804 1440.14024777645 915.27621301804 1436.97224777645 C 917.10021301804 1433.80424777645 918.01221301804 1429.91624777645 918.01221301804 1425.30824777645 C 918.01221301804 1420.70024777645 917.11621301804 1416.81224777645 915.32421301804 1413.64424777645 C 913.53221301804 1410.47624777645 911.16421301804 1408.10824777645 908.22021301804 1406.54024777645 C 905.27621301804 1404.97224777645 902.07621301804 1404.18824777645 898.62021301804 1404.18824777645 C 895.16421301804 1404.18824777645 891.96421301804 1404.97224777645 889.02021301804 1406.54024777645 C 886.07621301804 1408.10824777645 883.72421301804 1410.47624777645 881.96421301804 1413.64424777645 C 880.20421301804 1416.81224777645 879.32421301804 1420.70024777645 879.32421301804 1425.30824777645 C 879.32421301804 1429.91624777645 880.20421301804 1433.80424777645 881.96421301804 1436.97224777645 C 883.72421301804 1440.14024777645 886.06021301804 1442.50824777645 888.97221301804 1444.07624777645 C 891.88421301804 1445.64424777645 895.06821301804 1446.42824777645 898.52421301804 1446.42824777645 C 901.98021301804 1446.42824777645 905.18021301804 1445.64424777645 908.12421301804 1444.07624777645 Z M 1006.33221301804 1399.10024777645 L 989.91621301804 1451.51624777645 L 983.19621301804 1451.51624777645 L 968.70021301804 1407.54824777645 L 954.20421301804 1451.51624777645 L 947.38821301804 1451.51624777645 L 930.97221301804 1399.10024777645 L 937.78821301804 1399.10024777645 L 950.84421301804 1444.70024777645 L 965.53221301804 1399.10024777645 L 972.25221301804 1399.10024777645 L 986.74821301804 1444.79624777645 L 999.70821301804 1399.10024777645 L 1006.33221301804 1399.10024777645 Z M 1024.18821301804 1404.76424777645 L 1024.18821301804 1437.30824777645 C 1024.18821301804 1440.50824777645 1024.79621301804 1442.71624777645 1026.01221301804 1443.93224777645 C 1027.22821301804 1445.14824777645 1029.37221301804 1445.75624777645 1032.44421301804 1445.75624777645 L 1038.58821301804 1445.75624777645 L 1038.58821301804 1451.51624777645 L 1031.38821301804 1451.51624777645 C 1026.65221301804 1451.51624777645 1023.13221301804 1450.41224777645 1020.82821301804 1448.20424777645 C 1018.52421301804 1445.99624777645 1017.37221301804 1442.36424777645 1017.37221301804 1437.30824777645 L 1017.37221301804 1404.76424777645 L 1010.07621301804 1404.76424777645 L 1010.07621301804 1399.10024777645 L 1017.37221301804 1399.10024777645 L 1017.37221301804 1385.94824777645 L 1024.18821301804 1385.94824777645 L 1024.18821301804 1399.10024777645 L 1038.58821301804 1399.10024777645 L 1038.58821301804 1404.76424777645 L 1024.18821301804 1404.76424777645 Z M 1085.29221301804 1400.63624777645 C 1088.46021301804 1402.30024777645 1090.95621301804 1404.84424777645 1092.78021301804 1408.26824777645 C 1094.60421301804 1411.69224777645 1095.51621301804 1415.86824777645 1095.51621301804 1420.79624777645 L 1095.51621301804 1451.51624777645 L 1088.89221301804 1451.51624777645 L 1088.89221301804 1421.56424777645 C 1088.89221301804 1415.86824777645 1087.46821301804 1411.51624777645 1084.62021301804 1408.50824777645 C 1081.77221301804 1405.50024777645 1077.88421301804 1403.99624777645 1072.95621301804 1403.99624777645 C 1067.90021301804 1403.99624777645 1063.86821301804 1405.59624777645 1060.86021301804 1408.79624777645 C 1057.85221301804 1411.99624777645 1056.34821301804 1416.70024777645 1056.34821301804 1422.90824777645 L 1056.34821301804 1451.51624777645 L 1049.62821301804 1451.51624777645 L 1049.62821301804 1380.47624777645 L 1056.34821301804 1380.47624777645 L 1056.34821301804 1408.02824777645 C 1058.01221301804 1404.89224777645 1060.46021301804 1402.46024777645 1063.69221301804 1400.73224777645 C 1066.92421301804 1399.00424777645 1070.55621301804 1398.14024777645 1074.58821301804 1398.14024777645 C 1078.55621301804 1398.14024777645 1082.12421301804 1398.97224777645 1085.29221301804 1400.63624777645 Z"/></svg>